# xmcd
#
# Track frame offsets: 
#        187
#        24437
#        43162
#        47722
#        61927
#        80570
#        103167
#        121275
#        137542
#        152395
#
# Disc length: 2227 seconds
#
# Revision: 0
# Processed by: cddbd v1.5.1PL0 Copyright (c) Steve Scherf et al.
# Submitted via: ExactAudioCopy v0.90b3
#
DISCID=7b08b10a
DTITLE=Mad Max - Night Of Passion
DYEAR=1987
DGENRE=Hard Rock
TTITLE0=Burning The Stage
TTITLE1=Wait For The Night
TTITLE2=R.I.P.
TTITLE3=Dive Through The Sky
TTITLE4=Wild And Seventeen
TTITLE5=Hearts On Fire
TTITLE6=Love Loaded
TTITLE7=Night Of Passion
TTITLE8=Starcrossed Lovers
TTITLE9=Fox On The Run
EXTD=
EXTT0=
EXTT1=
EXTT2=
EXTT3=
EXTT4=
EXTT5=
EXTT6=
EXTT7=
EXTT8=
EXTT9=
PLAYORDER=
